<svg xmlns="http://www.w3.org/2000/svg" xmlns:xlink="http://www.w3.org/1999/xlink" version="1.1" width="256" height="256" viewBox="0 0 256 256" xml:space="preserve">

<defs>
</defs>
<g style="stroke: none; stroke-width: 0; stroke-dasharray: none; stroke-linecap: butt; stroke-linejoin: miter; stroke-miterlimit: 10; fill: none; fill-rule: nonzero; opacity: 1;" transform="translate(1.4065934065934016 1.4065934065934016) scale(2.81 2.81)" >
	<circle cx="45" cy="45" r="45" style="stroke: none; stroke-width: 1; stroke-dasharray: none; stroke-linecap: butt; stroke-linejoin: miter; stroke-miterlimit: 10; fill: rgb(32,196,203); fill-rule: nonzero; opacity: 1;" transform="  matrix(1 0 0 1 0 0) "/>
	<path d="M 73.073 48.987 c 0.018 -0.063 0.028 -0.128 0.042 -0.192 c 0.016 -0.074 0.036 -0.147 0.046 -0.221 c 0.009 -0.067 0.01 -0.134 0.015 -0.201 c 0.005 -0.073 0.014 -0.145 0.014 -0.218 c 0 -0.073 -0.009 -0.145 -0.014 -0.218 c -0.005 -0.067 -0.006 -0.135 -0.015 -0.202 c -0.01 -0.073 -0.03 -0.145 -0.045 -0.218 c -0.014 -0.066 -0.025 -0.132 -0.043 -0.196 c -0.019 -0.067 -0.047 -0.132 -0.071 -0.198 c -0.025 -0.069 -0.047 -0.138 -0.077 -0.205 c -0.003 -0.008 -0.005 -0.016 -0.009 -0.023 c -0.027 -0.057 -0.061 -0.109 -0.091 -0.164 c -0.035 -0.064 -0.067 -0.13 -0.106 -0.192 c -0.042 -0.065 -0.09 -0.124 -0.136 -0.186 c -0.036 -0.048 -0.066 -0.098 -0.105 -0.144 L 54.219 24.748 c -1.074 -1.263 -2.968 -1.414 -4.229 -0.341 c -1.262 1.074 -1.414 2.967 -0.341 4.229 L 63.7 45.154 H 13.5 c -1.657 0 -3 1.343 -3 3 s 1.343 3 3 3 h 50.201 l -14.053 16.52 c -1.073 1.262 -0.921 3.155 0.342 4.229 c 0.564 0.48 1.255 0.715 1.942 0.715 c 0.849 0 1.692 -0.358 2.286 -1.057 l 18.226 -21.426 c 0.001 -0.002 0.003 -0.003 0.004 -0.005 l 0.028 -0.032 c 0.032 -0.038 0.057 -0.08 0.087 -0.119 c 0.054 -0.07 0.108 -0.138 0.156 -0.212 c 0.036 -0.057 0.065 -0.117 0.098 -0.176 c 0.032 -0.059 0.069 -0.115 0.098 -0.177 c 0.004 -0.008 0.006 -0.016 0.009 -0.024 c 0.029 -0.064 0.049 -0.13 0.074 -0.195 C 73.023 49.124 73.052 49.057 73.073 48.987 z" style="stroke: none; stroke-width: 1; stroke-dasharray: none; stroke-linecap: butt; stroke-linejoin: miter; stroke-miterlimit: 10; fill: rgb(27,167,173); fill-rule: nonzero; opacity: 1;" transform=" matrix(1 0 0 1 0 0) " stroke-linecap="round" />
	<path d="M 76.381 45.679 c 0.019 -0.066 0.03 -0.134 0.044 -0.201 c 0.015 -0.071 0.034 -0.141 0.044 -0.213 c 0.01 -0.068 0.01 -0.137 0.015 -0.205 c 0.005 -0.072 0.014 -0.143 0.014 -0.214 c 0 -0.071 -0.009 -0.143 -0.014 -0.214 c -0.005 -0.069 -0.006 -0.137 -0.015 -0.205 c -0.01 -0.071 -0.029 -0.141 -0.044 -0.211 c -0.015 -0.068 -0.025 -0.137 -0.045 -0.203 c -0.019 -0.065 -0.046 -0.128 -0.07 -0.193 c -0.026 -0.07 -0.048 -0.141 -0.079 -0.209 c -0.003 -0.007 -0.005 -0.015 -0.009 -0.023 c -0.027 -0.058 -0.061 -0.11 -0.091 -0.165 c -0.034 -0.064 -0.066 -0.129 -0.105 -0.19 c -0.044 -0.069 -0.095 -0.132 -0.144 -0.196 c -0.033 -0.044 -0.062 -0.091 -0.098 -0.133 L 57.527 21.439 c -1.075 -1.263 -2.969 -1.414 -4.229 -0.341 c -1.262 1.074 -1.414 2.967 -0.341 4.229 l 14.052 16.519 h -50.2 c -1.657 0 -3 1.343 -3 3 c 0 1.657 1.343 3 3 3 H 67.01 l -14.053 16.52 c -1.073 1.262 -0.921 3.155 0.342 4.229 c 0.564 0.48 1.255 0.715 1.942 0.715 c 0.849 0 1.692 -0.358 2.286 -1.057 l 18.226 -21.426 c 0.001 -0.002 0.003 -0.003 0.004 -0.005 l 0.028 -0.032 c 0.032 -0.038 0.058 -0.08 0.088 -0.12 c 0.053 -0.069 0.107 -0.137 0.155 -0.211 c 0.037 -0.059 0.067 -0.121 0.1 -0.181 c 0.032 -0.058 0.068 -0.112 0.096 -0.173 c 0.004 -0.008 0.005 -0.016 0.009 -0.024 c 0.03 -0.067 0.052 -0.136 0.077 -0.204 C 76.334 45.811 76.362 45.746 76.381 45.679 z" style="stroke: none; stroke-width: 1; stroke-dasharray: none; stroke-linecap: butt; stroke-linejoin: miter; stroke-miterlimit: 10; fill: rgb(255,255,255); fill-rule: nonzero; opacity: 1;" transform=" matrix(1 0 0 1 0 0) " stroke-linecap="round" />
</g>
</svg>